<svg width="805.9999999999999" height="805.9999999999999" xmlns="http://www.w3.org/2000/svg" transform="rotate(353.452, 394.289, 394.48)">

 <g label="Layer 1" id="imagebot_2">
  <title>Layer 1</title>
  <path label="Layer 1" stroke="#7f0000" stroke-linecap="round" stroke-width="50" fill="#ffffff" d="M578.822,482.188 C552.529,587.839 444.23,651.831 336.928,625.125 S163.958,491.124 190.252,385.48 C216.546,279.829 324.845,215.837 432.146,242.543 C539.447,269.248 605.116,376.543 578.822,482.188 z" id="imagebot_17"/>
  <path transform="translate(-61.7598, 38.2064) matrix(1.26629, 0, 0, 1.26629, -27.3139, -127.082)" label="Layer 1" stroke="#000000" stroke-linecap="round" stroke-width="0" fill="#7f0000" d="M454.286,445.252 C442.238,493.662 393.227,523.137 344.819,511.089 C296.409,499.041 266.933,450.03 278.981,401.621 C291.03,353.211 340.041,323.736 388.449,335.784 C436.859,347.833 466.334,396.843 454.286,445.252 z" id="imagebot_8"/>
  <path label="Layer 1" fill-rule="evenodd" stroke="#000000" stroke-width="0" fill="#7f0000" d="M285.119,189.571 C118.306,282.39 82.8468,479.002 82.8468,479.002 C104.823,443.226 131.322,411.597 159.862,383.779 C115.93,460.472 111.362,484.324 91.1731,530.123 C77.8111,560.438 47.7808,580.047 47.7808,580.047 C51.5479,591.789 156.522,640.587 166.528,596.887 C268.462,151.69 539.41,240.555 647.263,298.753 L584.562,420.16 C554.142,455.007 556.86,478.328 500.992,533.199 C430.008,602.923 201.372,681.391 82.2522,676.08 C82.2522,676.08 -57.8074,802.934 336.232,694.201 C730.272,585.468 687.566,412.154 749.784,333.319 C812.001,254.484 811.09,219.393 796.982,223.381 C722.387,244.464 661.265,214.852 616.609,202.777 C597.798,197.688 569.813,188.567 552.022,185.877 C615.756,172.891 746.421,156.659 750.116,154.609 C711.84,125.019 612.263,118.225 594.555,117.679 C496.853,111.787 366.478,144.445 301.203,180.766 L285.119,189.571 z" id="imagebot_7"/>
 </g>
 <metadata>image/svg+xmlOpenclipartnarrowhouse cartoon eye remix coxartprod2010-06-13T22:09:18https://openclipart.org/detail/66649/narrowhouse-cartoon-eye-remix-coxartprod-by-coxproducercoxproduceraugeblackcartooneyegreenlookingoutlinestrong</metadata>
</svg>